<?xml version="1.0" encoding="UTF-8" standalone="no"?>
<!DOCTYPE svg PUBLIC "-//W3C//DTD SVG 1.1//EN" "http://www.w3.org/Graphics/SVG/1.1/DTD/svg11.dtd">
<!-- Microsoft Visio, SVG Export에서 생성되었습니다. message_transfer.svg 페이지-1 -->
<svg xmlns="http://www.w3.org/2000/svg" xmlns:xlink="http://www.w3.org/1999/xlink" xmlns:ev="http://www.w3.org/2001/xml-events"
		xmlns:v="http://schemas.microsoft.com/visio/2003/SVGExtensions/" width="4.33404in" height="1.48325in"
		viewBox="0 0 312.051 106.794" xml:space="preserve" color-interpolation-filters="sRGB" class="st10">
	<v:documentProperties v:langID="1042" v:metric="true" v:viewMarkup="false"/>

	<style type="text/css">
	<![CDATA[
		.st1 {fill:#fee599;stroke:#000000;stroke-linecap:round;stroke-linejoin:round;stroke-width:0.24}
		.st2 {fill:#00b0f0;stroke:#000000;stroke-linecap:round;stroke-linejoin:round;stroke-width:0.24}
		.st3 {fill:none;stroke:none;stroke-linecap:round;stroke-linejoin:round;stroke-width:0.75}
		.st4 {fill:#000000;font-family:맑은 고딕;font-size:1.00001em;font-weight:bold}
		.st5 {fill:#92d050;stroke:#000000;stroke-linecap:round;stroke-linejoin:round;stroke-width:0.24}
		.st6 {fill:#e5b9b5;stroke:#000000;stroke-linecap:round;stroke-linejoin:round;stroke-width:0.24}
		.st7 {fill:#000000;font-family:맑은 고딕;font-size:0.833336em}
		.st8 {marker-end:url(#mrkr5-39);stroke:#000000;stroke-linecap:round;stroke-linejoin:round;stroke-width:0.75}
		.st9 {fill:#000000;fill-opacity:1;stroke:#000000;stroke-opacity:1;stroke-width:0.22935779816514}
		.st10 {fill:none;fill-rule:evenodd;font-size:12px;overflow:visible;stroke-linecap:square;stroke-miterlimit:3}
	]]>
	</style>

	<defs id="Markers">
		<g id="lend5">
			<path d="M 2 1 L 0 0 L 1.98117 -0.993387 C 1.67173 -0.364515 1.67301 0.372641 1.98465 1.00043 " style="stroke:none"/>
		</g>
		<marker id="mrkr5-39" class="st9" v:arrowType="5" v:arrowSize="2" v:setback="7.63" refX="-7.63" orient="auto"
				markerUnits="strokeWidth" overflow="visible">
			<use xlink:href="#lend5" transform="scale(-4.36,-4.36) "/>
		</marker>
	</defs>
	<g v:mID="0" v:index="1" v:groupContext="foregroundPage">
		<title>페이지-1</title>
		<v:pageProperties v:drawingScale="0.0393701" v:pageScale="0.0393701" v:drawingUnits="24" v:shadowOffsetX="8.50394"
				v:shadowOffsetY="-8.50394"/>
		<g id="shape6-1" v:mID="6" v:groupContext="shape" transform="translate(0.12,-0.12)">
			<title>시트.6</title>
			<path d="M113.39 47.27 L113.39 33.09 A11.3384 11.3384 -180 0 0 102.05 21.75 L11.34 21.75 A11.3384 11.3384 -180 0 0 -0
						 33.09 L0 95.46 A11.3384 11.3384 -180 0 0 11.34 106.79 L102.05 106.79 A11.3384 11.3384 -180 0 0 113.39 95.46
						 L113.39 81.28 L90.71 81.28 A5.6692 5.6692 0 0 1 85.04 75.61 L85.04 52.94 A5.6692 5.6692 0 0 1 90.71 47.27
						 L113.39 47.27 Z" class="st1"/>
		</g>
		<g id="shape8-3" v:mID="8" v:groupContext="shape" transform="translate(198.545,-0.12)">
			<title>시트.8</title>
			<path d="M0 47.27 L22.68 47.27 A5.6692 5.6692 0 0 1 28.35 52.94 L28.35 75.61 A5.6692 5.6692 0 0 1 22.68 81.28 L0 81.28
						 L0 95.46 A11.3384 11.3384 -180 0 0 11.34 106.79 L102.05 106.79 A11.3384 11.3384 -180 0 0 113.39 95.46 L113.39
						 33.09 A11.3384 11.3384 -180 0 0 102.05 21.75 L11.34 21.75 A11.3384 11.3384 -180 0 0 -0 33.09 L0 47.27 Z"
					class="st1"/>
		</g>
		<g id="shape11-5" v:mID="11" v:groupContext="shape" transform="translate(85.1592,-25.6318)">
			<title>모서리가 둥근 직사각형</title>
			<v:userDefs>
				<v:ud v:nameU="CTypeTopLeftSnip" v:prompt="" v:val="VT0(0):5"/>
				<v:ud v:nameU="CTypeTopRightSnip" v:prompt="" v:val="VT0(0):5"/>
				<v:ud v:nameU="CTypeBotLeftSnip" v:prompt="" v:val="VT0(0):5"/>
				<v:ud v:nameU="CTypeBotRightSnip" v:prompt="" v:val="VT0(0):5"/>
				<v:ud v:nameU="CornerLockHoriz" v:prompt="" v:val="VT0(1):5"/>
				<v:ud v:nameU="CornerLockVert" v:prompt="" v:val="VT0(1):5"/>
				<v:ud v:nameU="CornerLockDiag" v:prompt="" v:val="VT0(0):5"/>
				<v:ud v:nameU="TopLeftOffset" v:prompt="" v:val="VT0(0.15748031496063):24"/>
				<v:ud v:nameU="TopRightOffset" v:prompt="" v:val="VT0(0.15748031496063):24"/>
				<v:ud v:nameU="BotLeftOffset" v:prompt="" v:val="VT0(0.15748031496063):24"/>
				<v:ud v:nameU="BotRightOffset" v:prompt="" v:val="VT0(0.15748031496063):24"/>
				<v:ud v:nameU="visVersion" v:prompt="" v:val="VT0(15):26"/>
				<v:ud v:nameU="TopLeftOffset" v:prompt="" v:val="VT0(0.078740157480315):1"/>
				<v:ud v:nameU="TopRightOffset" v:prompt="" v:val="VT0(0.078740157480315):1"/>
				<v:ud v:nameU="BotLeftOffset" v:prompt="" v:val="VT0(0.078740157480315):1"/>
				<v:ud v:nameU="BotRightOffset" v:prompt="" v:val="VT0(0.078740157480315):1"/>
			</v:userDefs>
			<path d="M5.67 106.79 L136.06 106.79 A5.6692 5.6692 -180 0 0 141.73 101.12 L141.73 78.45 A5.6692 5.6692 -180 0 0 136.06
						 72.78 L5.67 72.78 A5.6692 5.6692 -180 0 0 0 78.45 L0 101.12 A5.6692 5.6692 -180 0 0 5.67 106.79 Z"
					class="st2"/>
		</g>
		<g id="shape12-7" v:mID="12" v:groupContext="shape" transform="translate(14.293,-85.1594)">
			<title>시트.12</title>
			<desc>Input Node</desc>
			<v:textBlock v:margins="rect(4,4,4,4)" v:tabSpace="42.5197"/>
			<v:textRect cx="42.5197" cy="96.1643" width="85.04" height="21.2598"/>
			<rect x="0" y="85.5344" width="85.0394" height="21.2598" class="st3"/>
			<text x="9.62" y="99.76" class="st4" v:langID="1042"><v:paragraph v:horizAlign="1"/><v:tabList/>Input Node</text>		</g>
		<g id="shape14-10" v:mID="14" v:groupContext="shape" transform="translate(212.718,-85.1594)">
			<title>시트.14</title>
			<desc>Output Node</desc>
			<v:textBlock v:margins="rect(4,4,4,4)" v:tabSpace="42.5197"/>
			<v:textRect cx="42.5197" cy="96.1643" width="85.04" height="21.2598"/>
			<rect x="0" y="85.5344" width="85.0394" height="21.2598" class="st3"/>
			<text x="4.52" y="99.76" class="st4" v:langID="1042"><v:paragraph v:horizAlign="1"/><v:tabList/>Output Node</text>		</g>
		<g id="shape15-13" v:mID="15" v:groupContext="shape" transform="translate(127.679,-63.8995)">
			<title>시트.15</title>
			<desc>Pipe</desc>
			<v:textBlock v:margins="rect(4,4,4,4)" v:tabSpace="42.5197"/>
			<v:textRect cx="28.3465" cy="99.7076" width="56.7" height="14.1732"/>
			<rect x="0" y="92.621" width="56.6929" height="14.1732" class="st3"/>
			<text x="14.98" y="103.31" class="st4" v:langID="1042"><v:paragraph v:horizAlign="1"/><v:tabList/>Pipe</text>		</g>
		<g id="shape16-16" v:mID="16" v:groupContext="shape" transform="translate(78.0724,-35.5531)">
			<title>사각형</title>
			<v:userDefs>
				<v:ud v:nameU="visVersion" v:val="VT0(15):26"/>
			</v:userDefs>
			<rect x="0" y="92.621" width="14.1734" height="14.1732" class="st5"/>
		</g>
		<g id="shape17-18" v:mID="17" v:groupContext="shape" transform="translate(141.852,-35.5531)">
			<title>사각형.17</title>
			<v:userDefs>
				<v:ud v:nameU="visVersion" v:val="VT0(15):26"/>
			</v:userDefs>
			<rect x="0" y="92.621" width="14.1734" height="14.1732" class="st5"/>
		</g>
		<g id="shape18-20" v:mID="18" v:groupContext="shape" transform="translate(156.025,-35.5531)">
			<title>사각형.18</title>
			<v:userDefs>
				<v:ud v:nameU="visVersion" v:val="VT0(15):26"/>
			</v:userDefs>
			<rect x="0" y="92.621" width="14.1734" height="14.1732" class="st5"/>
		</g>
		<g id="shape19-22" v:mID="19" v:groupContext="shape" transform="translate(170.199,-35.5531)">
			<title>사각형.19</title>
			<v:userDefs>
				<v:ud v:nameU="visVersion" v:val="VT0(15):26"/>
			</v:userDefs>
			<rect x="0" y="92.621" width="14.1734" height="14.1732" class="st5"/>
		</g>
		<g id="shape20-24" v:mID="20" v:groupContext="shape" transform="translate(184.372,-35.5531)">
			<title>사각형.20</title>
			<v:userDefs>
				<v:ud v:nameU="visVersion" v:val="VT0(15):26"/>
			</v:userDefs>
			<rect x="0" y="92.621" width="14.1734" height="14.1732" class="st5"/>
		</g>
		<g id="shape21-26" v:mID="21" v:groupContext="shape" transform="translate(219.805,-35.5531)">
			<title>사각형.21</title>
			<v:userDefs>
				<v:ud v:nameU="visVersion" v:val="VT0(15):26"/>
			</v:userDefs>
			<rect x="0" y="92.621" width="14.1734" height="14.1732" class="st5"/>
		</g>
		<g id="shape22-28" v:mID="22" v:groupContext="shape" transform="translate(255.238,-17.8365)">
			<title>원</title>
			<desc>Process</desc>
			<v:userDefs>
				<v:ud v:nameU="visVersion" v:val="VT0(15):26"/>
			</v:userDefs>
			<v:textBlock v:margins="rect(4,4,4,4)" v:tabSpace="42.5197"/>
			<v:textRect cx="24.8031" cy="81.9911" width="43.41" height="37.2047"/>
			<path d="M0 81.99 A24.8031 24.8031 0 0 1 49.61 81.99 A24.8031 24.8031 0 1 1 0 81.99 Z" class="st6"/>
			<text x="7.82" y="84.99" class="st7" v:langID="1042"><v:paragraph v:horizAlign="1"/><v:tabList/>Process</text>		</g>
		<g id="shape23-31" v:mID="23" v:groupContext="shape" transform="translate(10.7497,-17.8365)">
			<title>원.23</title>
			<desc>Process</desc>
			<v:userDefs>
				<v:ud v:nameU="visVersion" v:val="VT0(15):26"/>
			</v:userDefs>
			<v:textBlock v:margins="rect(4,4,4,4)" v:tabSpace="42.5197"/>
			<v:textRect cx="24.8031" cy="81.9911" width="43.41" height="37.2047"/>
			<path d="M0 81.99 A24.8031 24.8031 0 0 1 49.61 81.99 A24.8031 24.8031 0 1 1 0 81.99 Z" class="st6"/>
			<text x="7.82" y="84.99" class="st7" v:langID="1042"><v:paragraph v:horizAlign="1"/><v:tabList/>Process</text>		</g>
		<g id="shape24-34" v:mID="24" v:groupContext="shape" transform="translate(60.356,-42.6397)">
			<title>시트.24</title>
			<path d="M0 106.79 L11.99 106.79" class="st8"/>
		</g>
		<g id="shape25-40" v:mID="25" v:groupContext="shape" transform="translate(92.2458,-42.6397)">
			<title>시트.25</title>
			<path d="M0 106.79 L43.88 106.79" class="st8"/>
		</g>
		<g id="shape26-45" v:mID="26" v:groupContext="shape" transform="translate(198.546,-42.6397)">
			<title>시트.26</title>
			<path d="M0 106.79 L15.54 106.79" class="st8"/>
		</g>
		<g id="shape27-50" v:mID="27" v:groupContext="shape" transform="translate(233.978,-42.6397)">
			<title>시트.27</title>
			<path d="M0 106.79 L15.54 106.79" class="st8"/>
		</g>
	</g>
</svg>
