<?xml version="1.0" encoding="UTF-8" standalone="no"?>
<!DOCTYPE svg PUBLIC "-//W3C//DTD SVG 1.1//EN" "http://www.w3.org/Graphics/SVG/1.1/DTD/svg11.dtd">
<!-- Microsoft Visio, SVG Export에서 생성되었습니다. node_hierachy.svg 페이지-1 -->
<svg xmlns="http://www.w3.org/2000/svg" xmlns:xlink="http://www.w3.org/1999/xlink" xmlns:ev="http://www.w3.org/2001/xml-events"
		xmlns:v="http://schemas.microsoft.com/visio/2003/SVGExtensions/" width="6.90018in" height="6.02336in"
		viewBox="0 0 496.813 433.682" xml:space="preserve" color-interpolation-filters="sRGB" class="st11">
	<v:documentProperties v:langID="1042" v:metric="true" v:viewMarkup="false"/>

	<style type="text/css">
	<![CDATA[
		.st1 {fill:#ffffff;stroke:#000000;stroke-linecap:round;stroke-linejoin:round;stroke-width:0.75}
		.st2 {fill:#ffffff;stroke:#000000;stroke-linecap:round;stroke-linejoin:round;stroke-width:0.24}
		.st3 {fill:#000000;font-family:맑은 고딕;font-size:0.833336em}
		.st4 {marker-end:url(#mrkr5-20);stroke:#000000;stroke-linecap:round;stroke-linejoin:round;stroke-width:0.75}
		.st5 {fill:#000000;fill-opacity:1;stroke:#000000;stroke-opacity:1;stroke-width:0.22935779816514}
		.st6 {stroke:#000000;stroke-linecap:round;stroke-linejoin:round;stroke-width:0.75}
		.st7 {stroke:#000000;stroke-dasharray:5.25,3.75;stroke-linecap:round;stroke-linejoin:round;stroke-width:0.75}
		.st8 {stroke:#000000;stroke-linecap:round;stroke-linejoin:round;stroke-width:0.24}
		.st9 {fill:none;stroke:none;stroke-linecap:round;stroke-linejoin:round;stroke-width:0.75}
		.st10 {fill:#000000;font-family:맑은 고딕;font-size:1.00001em}
		.st11 {fill:none;fill-rule:evenodd;font-size:12px;overflow:visible;stroke-linecap:square;stroke-miterlimit:3}
	]]>
	</style>

	<defs id="Markers">
		<g id="lend5">
			<path d="M 2 1 L 0 0 L 1.98117 -0.993387 C 1.67173 -0.364515 1.67301 0.372641 1.98465 1.00043 " style="stroke:none"/>
		</g>
		<marker id="mrkr5-20" class="st5" v:arrowType="5" v:arrowSize="2" v:setback="7.63" refX="-7.63" orient="auto"
				markerUnits="strokeWidth" overflow="visible">
			<use xlink:href="#lend5" transform="scale(-4.36,-4.36) "/>
		</marker>
	</defs>
	<g v:mID="0" v:index="1" v:groupContext="foregroundPage">
		<title>페이지-1</title>
		<v:pageProperties v:drawingScale="0.0393701" v:pageScale="0.0393701" v:drawingUnits="24" v:shadowOffsetX="8.50394"
				v:shadowOffsetY="-8.50394"/>
		<v:layer v:name="연결선" v:index="0"/>
		<g id="shape91-1" v:mID="91" v:groupContext="shape" transform="translate(0.375,-0.375)">
			<title>시트.91</title>
			<rect x="0" y="8.48524" width="496.063" height="425.197" class="st1"/>
		</g>
		<g id="shape9-3" v:mID="9" v:groupContext="shape" transform="translate(28.7215,-326.359)">
			<title>모서리가 둥근 직사각형</title>
			<desc>Node</desc>
			<v:userDefs>
				<v:ud v:nameU="CTypeTopLeftSnip" v:prompt="" v:val="VT0(0):5"/>
				<v:ud v:nameU="CTypeTopRightSnip" v:prompt="" v:val="VT0(0):5"/>
				<v:ud v:nameU="CTypeBotLeftSnip" v:prompt="" v:val="VT0(0):5"/>
				<v:ud v:nameU="CTypeBotRightSnip" v:prompt="" v:val="VT0(0):5"/>
				<v:ud v:nameU="CornerLockHoriz" v:prompt="" v:val="VT0(1):5"/>
				<v:ud v:nameU="CornerLockVert" v:prompt="" v:val="VT0(1):5"/>
				<v:ud v:nameU="CornerLockDiag" v:prompt="" v:val="VT0(0):5"/>
				<v:ud v:nameU="TopLeftOffset" v:prompt="" v:val="VT0(0.15748031496063):24"/>
				<v:ud v:nameU="TopRightOffset" v:prompt="" v:val="VT0(0.15748031496063):24"/>
				<v:ud v:nameU="BotLeftOffset" v:prompt="" v:val="VT0(0.15748031496063):24"/>
				<v:ud v:nameU="BotRightOffset" v:prompt="" v:val="VT0(0.15748031496063):24"/>
				<v:ud v:nameU="visVersion" v:prompt="" v:val="VT0(15):26"/>
				<v:ud v:nameU="TopLeftOffset" v:prompt="" v:val="VT0(0.11811023622047):1"/>
				<v:ud v:nameU="TopRightOffset" v:prompt="" v:val="VT0(0.11811023622047):1"/>
				<v:ud v:nameU="BotLeftOffset" v:prompt="" v:val="VT0(0.11811023622047):1"/>
				<v:ud v:nameU="BotRightOffset" v:prompt="" v:val="VT0(0.11811023622047):1"/>
			</v:userDefs>
			<v:textBlock v:margins="rect(4,4,4,4)" v:tabSpace="42.5197"/>
			<v:textRect cx="42.5197" cy="419.509" width="85.04" height="28.3465"/>
			<path d="M8.5 433.68 L76.54 433.68 A8.5038 8.5038 -180 0 0 85.04 425.18 L85.04 413.84 A8.5038 8.5038 -180 0 0 76.54 405.34
						 L8.5 405.34 A8.5038 8.5038 -180 0 0 0 413.84 L0 425.18 A8.5038 8.5038 -180 0 0 8.5 433.68 Z" class="st2"/>
			<text x="30.01" y="422.51" class="st3" v:langID="1042"><v:paragraph v:horizAlign="1"/><v:tabList/>Node</text>		</g>
		<g id="shape10-6" v:mID="10" v:groupContext="shape" transform="translate(142.107,-326.359)">
			<title>모서리가 둥근 직사각형.10</title>
			<desc>ActiveNode</desc>
			<v:userDefs>
				<v:ud v:nameU="CTypeTopLeftSnip" v:prompt="" v:val="VT0(0):5"/>
				<v:ud v:nameU="CTypeTopRightSnip" v:prompt="" v:val="VT0(0):5"/>
				<v:ud v:nameU="CTypeBotLeftSnip" v:prompt="" v:val="VT0(0):5"/>
				<v:ud v:nameU="CTypeBotRightSnip" v:prompt="" v:val="VT0(0):5"/>
				<v:ud v:nameU="CornerLockHoriz" v:prompt="" v:val="VT0(1):5"/>
				<v:ud v:nameU="CornerLockVert" v:prompt="" v:val="VT0(1):5"/>
				<v:ud v:nameU="CornerLockDiag" v:prompt="" v:val="VT0(0):5"/>
				<v:ud v:nameU="TopLeftOffset" v:prompt="" v:val="VT0(0.15748031496063):24"/>
				<v:ud v:nameU="TopRightOffset" v:prompt="" v:val="VT0(0.15748031496063):24"/>
				<v:ud v:nameU="BotLeftOffset" v:prompt="" v:val="VT0(0.15748031496063):24"/>
				<v:ud v:nameU="BotRightOffset" v:prompt="" v:val="VT0(0.15748031496063):24"/>
				<v:ud v:nameU="visVersion" v:prompt="" v:val="VT0(15):26"/>
				<v:ud v:nameU="TopLeftOffset" v:prompt="" v:val="VT0(0.11811023622047):1"/>
				<v:ud v:nameU="TopRightOffset" v:prompt="" v:val="VT0(0.11811023622047):1"/>
				<v:ud v:nameU="BotLeftOffset" v:prompt="" v:val="VT0(0.11811023622047):1"/>
				<v:ud v:nameU="BotRightOffset" v:prompt="" v:val="VT0(0.11811023622047):1"/>
			</v:userDefs>
			<v:textBlock v:margins="rect(4,4,4,4)" v:tabSpace="42.5197"/>
			<v:textRect cx="42.5197" cy="419.509" width="85.04" height="28.3465"/>
			<path d="M8.5 433.68 L76.54 433.68 A8.5038 8.5038 -180 0 0 85.04 425.18 L85.04 413.84 A8.5038 8.5038 -180 0 0 76.54 405.34
						 L8.5 405.34 A8.5038 8.5038 -180 0 0 0 413.84 L0 425.18 A8.5038 8.5038 -180 0 0 8.5 433.68 Z" class="st2"/>
			<text x="16.29" y="422.51" class="st3" v:langID="1042"><v:paragraph v:horizAlign="1"/><v:tabList/>ActiveNode</text>		</g>
		<g id="shape12-9" v:mID="12" v:groupContext="shape" transform="translate(255.493,-326.359)">
			<title>모서리가 둥근 직사각형.12</title>
			<desc>InputNode</desc>
			<v:userDefs>
				<v:ud v:nameU="CTypeTopLeftSnip" v:prompt="" v:val="VT0(0):5"/>
				<v:ud v:nameU="CTypeTopRightSnip" v:prompt="" v:val="VT0(0):5"/>
				<v:ud v:nameU="CTypeBotLeftSnip" v:prompt="" v:val="VT0(0):5"/>
				<v:ud v:nameU="CTypeBotRightSnip" v:prompt="" v:val="VT0(0):5"/>
				<v:ud v:nameU="CornerLockHoriz" v:prompt="" v:val="VT0(1):5"/>
				<v:ud v:nameU="CornerLockVert" v:prompt="" v:val="VT0(1):5"/>
				<v:ud v:nameU="CornerLockDiag" v:prompt="" v:val="VT0(0):5"/>
				<v:ud v:nameU="TopLeftOffset" v:prompt="" v:val="VT0(0.15748031496063):24"/>
				<v:ud v:nameU="TopRightOffset" v:prompt="" v:val="VT0(0.15748031496063):24"/>
				<v:ud v:nameU="BotLeftOffset" v:prompt="" v:val="VT0(0.15748031496063):24"/>
				<v:ud v:nameU="BotRightOffset" v:prompt="" v:val="VT0(0.15748031496063):24"/>
				<v:ud v:nameU="visVersion" v:prompt="" v:val="VT0(15):26"/>
				<v:ud v:nameU="TopLeftOffset" v:prompt="" v:val="VT0(0.11811023622047):1"/>
				<v:ud v:nameU="TopRightOffset" v:prompt="" v:val="VT0(0.11811023622047):1"/>
				<v:ud v:nameU="BotLeftOffset" v:prompt="" v:val="VT0(0.11811023622047):1"/>
				<v:ud v:nameU="BotRightOffset" v:prompt="" v:val="VT0(0.11811023622047):1"/>
			</v:userDefs>
			<v:textBlock v:margins="rect(4,4,4,4)" v:tabSpace="42.5197"/>
			<v:textRect cx="42.5197" cy="419.509" width="85.04" height="28.3465"/>
			<path d="M8.5 433.68 L76.54 433.68 A8.5038 8.5038 -180 0 0 85.04 425.18 L85.04 413.84 A8.5038 8.5038 -180 0 0 76.54 405.34
						 L8.5 405.34 A8.5038 8.5038 -180 0 0 0 413.84 L0 425.18 A8.5038 8.5038 -180 0 0 8.5 433.68 Z" class="st2"/>
			<text x="18.15" y="422.51" class="st3" v:langID="1042"><v:paragraph v:horizAlign="1"/><v:tabList/>InputNode</text>		</g>
		<g id="shape13-12" v:mID="13" v:groupContext="shape" transform="translate(255.493,-241.32)">
			<title>모서리가 둥근 직사각형.13</title>
			<desc>OutputNode</desc>
			<v:userDefs>
				<v:ud v:nameU="CTypeTopLeftSnip" v:prompt="" v:val="VT0(0):5"/>
				<v:ud v:nameU="CTypeTopRightSnip" v:prompt="" v:val="VT0(0):5"/>
				<v:ud v:nameU="CTypeBotLeftSnip" v:prompt="" v:val="VT0(0):5"/>
				<v:ud v:nameU="CTypeBotRightSnip" v:prompt="" v:val="VT0(0):5"/>
				<v:ud v:nameU="CornerLockHoriz" v:prompt="" v:val="VT0(1):5"/>
				<v:ud v:nameU="CornerLockVert" v:prompt="" v:val="VT0(1):5"/>
				<v:ud v:nameU="CornerLockDiag" v:prompt="" v:val="VT0(0):5"/>
				<v:ud v:nameU="TopLeftOffset" v:prompt="" v:val="VT0(0.15748031496063):24"/>
				<v:ud v:nameU="TopRightOffset" v:prompt="" v:val="VT0(0.15748031496063):24"/>
				<v:ud v:nameU="BotLeftOffset" v:prompt="" v:val="VT0(0.15748031496063):24"/>
				<v:ud v:nameU="BotRightOffset" v:prompt="" v:val="VT0(0.15748031496063):24"/>
				<v:ud v:nameU="visVersion" v:prompt="" v:val="VT0(15):26"/>
				<v:ud v:nameU="TopLeftOffset" v:prompt="" v:val="VT0(0.11811023622047):1"/>
				<v:ud v:nameU="TopRightOffset" v:prompt="" v:val="VT0(0.11811023622047):1"/>
				<v:ud v:nameU="BotLeftOffset" v:prompt="" v:val="VT0(0.11811023622047):1"/>
				<v:ud v:nameU="BotRightOffset" v:prompt="" v:val="VT0(0.11811023622047):1"/>
			</v:userDefs>
			<v:textBlock v:margins="rect(4,4,4,4)" v:tabSpace="42.5197"/>
			<v:textRect cx="42.5197" cy="419.509" width="85.04" height="28.3465"/>
			<path d="M8.5 433.68 L76.54 433.68 A8.5038 8.5038 -180 0 0 85.04 425.18 L85.04 413.84 A8.5038 8.5038 -180 0 0 76.54 405.34
						 L8.5 405.34 A8.5038 8.5038 -180 0 0 0 413.84 L0 425.18 A8.5038 8.5038 -180 0 0 8.5 433.68 Z" class="st2"/>
			<text x="13.91" y="422.51" class="st3" v:langID="1042"><v:paragraph v:horizAlign="1"/><v:tabList/>OutputNode</text>		</g>
		<g id="shape14-15" v:mID="14" v:groupContext="shape" v:layerMember="0" transform="translate(142.107,-333.446)">
			<title>동적 연결선</title>
			<path d="M0 426.6 L-22.62 426.6" class="st4"/>
		</g>
		<g id="shape16-21" v:mID="16" v:groupContext="shape" v:layerMember="0" transform="translate(255.493,-255.493)">
			<title>동적 연결선.16</title>
			<path d="M0 433.68 L-14.17 433.68 L-14.17 348.64 L-22.62 348.64" class="st4"/>
		</g>
		<g id="shape19-26" v:mID="19" v:groupContext="shape" transform="translate(383.052,-326.359)">
			<title>모서리가 둥근 직사각형.19</title>
			<desc>TerminalIn</desc>
			<v:userDefs>
				<v:ud v:nameU="CTypeTopLeftSnip" v:prompt="" v:val="VT0(0):5"/>
				<v:ud v:nameU="CTypeTopRightSnip" v:prompt="" v:val="VT0(0):5"/>
				<v:ud v:nameU="CTypeBotLeftSnip" v:prompt="" v:val="VT0(0):5"/>
				<v:ud v:nameU="CTypeBotRightSnip" v:prompt="" v:val="VT0(0):5"/>
				<v:ud v:nameU="CornerLockHoriz" v:prompt="" v:val="VT0(1):5"/>
				<v:ud v:nameU="CornerLockVert" v:prompt="" v:val="VT0(1):5"/>
				<v:ud v:nameU="CornerLockDiag" v:prompt="" v:val="VT0(0):5"/>
				<v:ud v:nameU="TopLeftOffset" v:prompt="" v:val="VT0(0.15748031496063):24"/>
				<v:ud v:nameU="TopRightOffset" v:prompt="" v:val="VT0(0.15748031496063):24"/>
				<v:ud v:nameU="BotLeftOffset" v:prompt="" v:val="VT0(0.15748031496063):24"/>
				<v:ud v:nameU="BotRightOffset" v:prompt="" v:val="VT0(0.15748031496063):24"/>
				<v:ud v:nameU="visVersion" v:prompt="" v:val="VT0(15):26"/>
				<v:ud v:nameU="TopLeftOffset" v:prompt="" v:val="VT0(0.11811023622047):1"/>
				<v:ud v:nameU="TopRightOffset" v:prompt="" v:val="VT0(0.11811023622047):1"/>
				<v:ud v:nameU="BotLeftOffset" v:prompt="" v:val="VT0(0.11811023622047):1"/>
				<v:ud v:nameU="BotRightOffset" v:prompt="" v:val="VT0(0.11811023622047):1"/>
			</v:userDefs>
			<v:textBlock v:margins="rect(4,4,4,4)" v:tabSpace="42.5197"/>
			<v:textRect cx="42.5197" cy="419.509" width="85.04" height="28.3465"/>
			<path d="M8.5 433.68 L76.54 433.68 A8.5038 8.5038 -180 0 0 85.04 425.18 L85.04 413.84 A8.5038 8.5038 -180 0 0 76.54 405.34
						 L8.5 405.34 A8.5038 8.5038 -180 0 0 0 413.84 L0 425.18 A8.5038 8.5038 -180 0 0 8.5 433.68 Z" class="st2"/>
			<text x="18.82" y="422.51" class="st3" v:langID="1042"><v:paragraph v:horizAlign="1"/><v:tabList/>TerminalIn</text>		</g>
		<g id="shape20-29" v:mID="20" v:groupContext="shape" transform="translate(383.052,-283.84)">
			<title>모서리가 둥근 직사각형.20</title>
			<desc>Ticker</desc>
			<v:userDefs>
				<v:ud v:nameU="CTypeTopLeftSnip" v:prompt="" v:val="VT0(0):5"/>
				<v:ud v:nameU="CTypeTopRightSnip" v:prompt="" v:val="VT0(0):5"/>
				<v:ud v:nameU="CTypeBotLeftSnip" v:prompt="" v:val="VT0(0):5"/>
				<v:ud v:nameU="CTypeBotRightSnip" v:prompt="" v:val="VT0(0):5"/>
				<v:ud v:nameU="CornerLockHoriz" v:prompt="" v:val="VT0(1):5"/>
				<v:ud v:nameU="CornerLockVert" v:prompt="" v:val="VT0(1):5"/>
				<v:ud v:nameU="CornerLockDiag" v:prompt="" v:val="VT0(0):5"/>
				<v:ud v:nameU="TopLeftOffset" v:prompt="" v:val="VT0(0.15748031496063):24"/>
				<v:ud v:nameU="TopRightOffset" v:prompt="" v:val="VT0(0.15748031496063):24"/>
				<v:ud v:nameU="BotLeftOffset" v:prompt="" v:val="VT0(0.15748031496063):24"/>
				<v:ud v:nameU="BotRightOffset" v:prompt="" v:val="VT0(0.15748031496063):24"/>
				<v:ud v:nameU="visVersion" v:prompt="" v:val="VT0(15):26"/>
				<v:ud v:nameU="TopLeftOffset" v:prompt="" v:val="VT0(0.11811023622047):1"/>
				<v:ud v:nameU="TopRightOffset" v:prompt="" v:val="VT0(0.11811023622047):1"/>
				<v:ud v:nameU="BotLeftOffset" v:prompt="" v:val="VT0(0.11811023622047):1"/>
				<v:ud v:nameU="BotRightOffset" v:prompt="" v:val="VT0(0.11811023622047):1"/>
			</v:userDefs>
			<v:textBlock v:margins="rect(4,4,4,4)" v:tabSpace="42.5197"/>
			<v:textRect cx="42.5197" cy="419.509" width="85.04" height="28.3465"/>
			<path d="M8.5 433.68 L76.54 433.68 A8.5038 8.5038 -180 0 0 85.04 425.18 L85.04 413.84 A8.5038 8.5038 -180 0 0 76.54 405.34
						 L8.5 405.34 A8.5038 8.5038 -180 0 0 0 413.84 L0 425.18 A8.5038 8.5038 -180 0 0 8.5 433.68 Z" class="st2"/>
			<text x="29.28" y="422.51" class="st3" v:langID="1042"><v:paragraph v:horizAlign="1"/><v:tabList/>Ticker</text>		</g>
		<g id="shape21-32" v:mID="21" v:groupContext="shape" transform="translate(383.052,-241.32)">
			<title>모서리가 둥근 직사각형.21</title>
			<desc>TerminalOut</desc>
			<v:userDefs>
				<v:ud v:nameU="CTypeTopLeftSnip" v:prompt="" v:val="VT0(0):5"/>
				<v:ud v:nameU="CTypeTopRightSnip" v:prompt="" v:val="VT0(0):5"/>
				<v:ud v:nameU="CTypeBotLeftSnip" v:prompt="" v:val="VT0(0):5"/>
				<v:ud v:nameU="CTypeBotRightSnip" v:prompt="" v:val="VT0(0):5"/>
				<v:ud v:nameU="CornerLockHoriz" v:prompt="" v:val="VT0(1):5"/>
				<v:ud v:nameU="CornerLockVert" v:prompt="" v:val="VT0(1):5"/>
				<v:ud v:nameU="CornerLockDiag" v:prompt="" v:val="VT0(0):5"/>
				<v:ud v:nameU="TopLeftOffset" v:prompt="" v:val="VT0(0.15748031496063):24"/>
				<v:ud v:nameU="TopRightOffset" v:prompt="" v:val="VT0(0.15748031496063):24"/>
				<v:ud v:nameU="BotLeftOffset" v:prompt="" v:val="VT0(0.15748031496063):24"/>
				<v:ud v:nameU="BotRightOffset" v:prompt="" v:val="VT0(0.15748031496063):24"/>
				<v:ud v:nameU="visVersion" v:prompt="" v:val="VT0(15):26"/>
				<v:ud v:nameU="TopLeftOffset" v:prompt="" v:val="VT0(0.11811023622047):1"/>
				<v:ud v:nameU="TopRightOffset" v:prompt="" v:val="VT0(0.11811023622047):1"/>
				<v:ud v:nameU="BotLeftOffset" v:prompt="" v:val="VT0(0.11811023622047):1"/>
				<v:ud v:nameU="BotRightOffset" v:prompt="" v:val="VT0(0.11811023622047):1"/>
			</v:userDefs>
			<v:textBlock v:margins="rect(4,4,4,4)" v:tabSpace="42.5197"/>
			<v:textRect cx="42.5197" cy="419.509" width="85.04" height="28.3465"/>
			<path d="M8.5 433.68 L76.54 433.68 A8.5038 8.5038 -180 0 0 85.04 425.18 L85.04 413.84 A8.5038 8.5038 -180 0 0 76.54 405.34
						 L8.5 405.34 A8.5038 8.5038 -180 0 0 0 413.84 L0 425.18 A8.5038 8.5038 -180 0 0 8.5 433.68 Z" class="st2"/>
			<text x="14.58" y="422.51" class="st3" v:langID="1042"><v:paragraph v:horizAlign="1"/><v:tabList/>TerminalOut</text>		</g>
		<g id="shape23-35" v:mID="23" v:groupContext="shape" transform="translate(383.052,-184.627)">
			<title>모서리가 둥근 직사각형.23</title>
			<desc>Add</desc>
			<v:userDefs>
				<v:ud v:nameU="CTypeTopLeftSnip" v:prompt="" v:val="VT0(0):5"/>
				<v:ud v:nameU="CTypeTopRightSnip" v:prompt="" v:val="VT0(0):5"/>
				<v:ud v:nameU="CTypeBotLeftSnip" v:prompt="" v:val="VT0(0):5"/>
				<v:ud v:nameU="CTypeBotRightSnip" v:prompt="" v:val="VT0(0):5"/>
				<v:ud v:nameU="CornerLockHoriz" v:prompt="" v:val="VT0(1):5"/>
				<v:ud v:nameU="CornerLockVert" v:prompt="" v:val="VT0(1):5"/>
				<v:ud v:nameU="CornerLockDiag" v:prompt="" v:val="VT0(0):5"/>
				<v:ud v:nameU="TopLeftOffset" v:prompt="" v:val="VT0(0.15748031496063):24"/>
				<v:ud v:nameU="TopRightOffset" v:prompt="" v:val="VT0(0.15748031496063):24"/>
				<v:ud v:nameU="BotLeftOffset" v:prompt="" v:val="VT0(0.15748031496063):24"/>
				<v:ud v:nameU="BotRightOffset" v:prompt="" v:val="VT0(0.15748031496063):24"/>
				<v:ud v:nameU="visVersion" v:prompt="" v:val="VT0(15):26"/>
				<v:ud v:nameU="TopLeftOffset" v:prompt="" v:val="VT0(0.11811023622047):1"/>
				<v:ud v:nameU="TopRightOffset" v:prompt="" v:val="VT0(0.11811023622047):1"/>
				<v:ud v:nameU="BotLeftOffset" v:prompt="" v:val="VT0(0.11811023622047):1"/>
				<v:ud v:nameU="BotRightOffset" v:prompt="" v:val="VT0(0.11811023622047):1"/>
			</v:userDefs>
			<v:textBlock v:margins="rect(4,4,4,4)" v:tabSpace="42.5197"/>
			<v:textRect cx="42.5197" cy="419.509" width="85.04" height="28.3465"/>
			<path d="M8.5 433.68 L76.54 433.68 A8.5038 8.5038 -180 0 0 85.04 425.18 L85.04 413.84 A8.5038 8.5038 -180 0 0 76.54 405.34
						 L8.5 405.34 A8.5038 8.5038 -180 0 0 0 413.84 L0 425.18 A8.5038 8.5038 -180 0 0 8.5 433.68 Z" class="st2"/>
			<text x="33.21" y="422.51" class="st3" v:langID="1042"><v:paragraph v:horizAlign="1"/><v:tabList/>Add</text>		</g>
		<g id="shape38-38" v:mID="38" v:groupContext="shape" transform="translate(383.052,-142.107)">
			<title>모서리가 둥근 직사각형.38</title>
			<desc>Subtract</desc>
			<v:userDefs>
				<v:ud v:nameU="CTypeTopLeftSnip" v:prompt="" v:val="VT0(0):5"/>
				<v:ud v:nameU="CTypeTopRightSnip" v:prompt="" v:val="VT0(0):5"/>
				<v:ud v:nameU="CTypeBotLeftSnip" v:prompt="" v:val="VT0(0):5"/>
				<v:ud v:nameU="CTypeBotRightSnip" v:prompt="" v:val="VT0(0):5"/>
				<v:ud v:nameU="CornerLockHoriz" v:prompt="" v:val="VT0(1):5"/>
				<v:ud v:nameU="CornerLockVert" v:prompt="" v:val="VT0(1):5"/>
				<v:ud v:nameU="CornerLockDiag" v:prompt="" v:val="VT0(0):5"/>
				<v:ud v:nameU="TopLeftOffset" v:prompt="" v:val="VT0(0.15748031496063):24"/>
				<v:ud v:nameU="TopRightOffset" v:prompt="" v:val="VT0(0.15748031496063):24"/>
				<v:ud v:nameU="BotLeftOffset" v:prompt="" v:val="VT0(0.15748031496063):24"/>
				<v:ud v:nameU="BotRightOffset" v:prompt="" v:val="VT0(0.15748031496063):24"/>
				<v:ud v:nameU="visVersion" v:prompt="" v:val="VT0(15):26"/>
				<v:ud v:nameU="TopLeftOffset" v:prompt="" v:val="VT0(0.11811023622047):1"/>
				<v:ud v:nameU="TopRightOffset" v:prompt="" v:val="VT0(0.11811023622047):1"/>
				<v:ud v:nameU="BotLeftOffset" v:prompt="" v:val="VT0(0.11811023622047):1"/>
				<v:ud v:nameU="BotRightOffset" v:prompt="" v:val="VT0(0.11811023622047):1"/>
			</v:userDefs>
			<v:textBlock v:margins="rect(4,4,4,4)" v:tabSpace="42.5197"/>
			<v:textRect cx="42.5197" cy="419.509" width="85.04" height="28.3465"/>
			<path d="M8.5 433.68 L76.54 433.68 A8.5038 8.5038 -180 0 0 85.04 425.18 L85.04 413.84 A8.5038 8.5038 -180 0 0 76.54 405.34
						 L8.5 405.34 A8.5038 8.5038 -180 0 0 0 413.84 L0 425.18 A8.5038 8.5038 -180 0 0 8.5 433.68 Z" class="st2"/>
			<text x="23.73" y="422.51" class="st3" v:langID="1042"><v:paragraph v:horizAlign="1"/><v:tabList/>Subtract</text>		</g>
		<g id="shape54-41" v:mID="54" v:groupContext="shape" transform="translate(383.052,-99.5876)">
			<title>모서리가 둥근 직사각형.54</title>
			<desc>Multiply</desc>
			<v:userDefs>
				<v:ud v:nameU="CTypeTopLeftSnip" v:prompt="" v:val="VT0(0):5"/>
				<v:ud v:nameU="CTypeTopRightSnip" v:prompt="" v:val="VT0(0):5"/>
				<v:ud v:nameU="CTypeBotLeftSnip" v:prompt="" v:val="VT0(0):5"/>
				<v:ud v:nameU="CTypeBotRightSnip" v:prompt="" v:val="VT0(0):5"/>
				<v:ud v:nameU="CornerLockHoriz" v:prompt="" v:val="VT0(1):5"/>
				<v:ud v:nameU="CornerLockVert" v:prompt="" v:val="VT0(1):5"/>
				<v:ud v:nameU="CornerLockDiag" v:prompt="" v:val="VT0(0):5"/>
				<v:ud v:nameU="TopLeftOffset" v:prompt="" v:val="VT0(0.15748031496063):24"/>
				<v:ud v:nameU="TopRightOffset" v:prompt="" v:val="VT0(0.15748031496063):24"/>
				<v:ud v:nameU="BotLeftOffset" v:prompt="" v:val="VT0(0.15748031496063):24"/>
				<v:ud v:nameU="BotRightOffset" v:prompt="" v:val="VT0(0.15748031496063):24"/>
				<v:ud v:nameU="visVersion" v:prompt="" v:val="VT0(15):26"/>
				<v:ud v:nameU="TopLeftOffset" v:prompt="" v:val="VT0(0.11811023622047):1"/>
				<v:ud v:nameU="TopRightOffset" v:prompt="" v:val="VT0(0.11811023622047):1"/>
				<v:ud v:nameU="BotLeftOffset" v:prompt="" v:val="VT0(0.11811023622047):1"/>
				<v:ud v:nameU="BotRightOffset" v:prompt="" v:val="VT0(0.11811023622047):1"/>
			</v:userDefs>
			<v:textBlock v:margins="rect(4,4,4,4)" v:tabSpace="42.5197"/>
			<v:textRect cx="42.5197" cy="419.509" width="85.04" height="28.3465"/>
			<path d="M8.5 433.68 L76.54 433.68 A8.5038 8.5038 -180 0 0 85.04 425.18 L85.04 413.84 A8.5038 8.5038 -180 0 0 76.54 405.34
						 L8.5 405.34 A8.5038 8.5038 -180 0 0 0 413.84 L0 425.18 A8.5038 8.5038 -180 0 0 8.5 433.68 Z" class="st2"/>
			<text x="24.16" y="422.51" class="st3" v:langID="1042"><v:paragraph v:horizAlign="1"/><v:tabList/>Multiply</text>		</g>
		<g id="shape55-44" v:mID="55" v:groupContext="shape" transform="translate(383.052,-57.0679)">
			<title>모서리가 둥근 직사각형.55</title>
			<desc>Divide</desc>
			<v:userDefs>
				<v:ud v:nameU="CTypeTopLeftSnip" v:prompt="" v:val="VT0(0):5"/>
				<v:ud v:nameU="CTypeTopRightSnip" v:prompt="" v:val="VT0(0):5"/>
				<v:ud v:nameU="CTypeBotLeftSnip" v:prompt="" v:val="VT0(0):5"/>
				<v:ud v:nameU="CTypeBotRightSnip" v:prompt="" v:val="VT0(0):5"/>
				<v:ud v:nameU="CornerLockHoriz" v:prompt="" v:val="VT0(1):5"/>
				<v:ud v:nameU="CornerLockVert" v:prompt="" v:val="VT0(1):5"/>
				<v:ud v:nameU="CornerLockDiag" v:prompt="" v:val="VT0(0):5"/>
				<v:ud v:nameU="TopLeftOffset" v:prompt="" v:val="VT0(0.15748031496063):24"/>
				<v:ud v:nameU="TopRightOffset" v:prompt="" v:val="VT0(0.15748031496063):24"/>
				<v:ud v:nameU="BotLeftOffset" v:prompt="" v:val="VT0(0.15748031496063):24"/>
				<v:ud v:nameU="BotRightOffset" v:prompt="" v:val="VT0(0.15748031496063):24"/>
				<v:ud v:nameU="visVersion" v:prompt="" v:val="VT0(15):26"/>
				<v:ud v:nameU="TopLeftOffset" v:prompt="" v:val="VT0(0.11811023622047):1"/>
				<v:ud v:nameU="TopRightOffset" v:prompt="" v:val="VT0(0.11811023622047):1"/>
				<v:ud v:nameU="BotLeftOffset" v:prompt="" v:val="VT0(0.11811023622047):1"/>
				<v:ud v:nameU="BotRightOffset" v:prompt="" v:val="VT0(0.11811023622047):1"/>
			</v:userDefs>
			<v:textBlock v:margins="rect(4,4,4,4)" v:tabSpace="42.5197"/>
			<v:textRect cx="42.5197" cy="419.509" width="85.04" height="28.3465"/>
			<path d="M8.5 433.68 L76.54 433.68 A8.5038 8.5038 -180 0 0 85.04 425.18 L85.04 413.84 A8.5038 8.5038 -180 0 0 76.54 405.34
						 L8.5 405.34 A8.5038 8.5038 -180 0 0 0 413.84 L0 425.18 A8.5038 8.5038 -180 0 0 8.5 433.68 Z" class="st2"/>
			<text x="28.35" y="422.51" class="st3" v:langID="1042"><v:paragraph v:horizAlign="1"/><v:tabList/>Divide</text>		</g>
		<g id="shape56-47" v:mID="56" v:groupContext="shape" v:layerMember="0" transform="translate(383.052,-333.446)">
			<title>동적 연결선.56</title>
			<path d="M0 426.6 L-36.8 426.6" class="st4"/>
		</g>
		<g id="shape57-52" v:mID="57" v:groupContext="shape" v:layerMember="0" transform="translate(383.052,-248.406)">
			<title>동적 연결선.57</title>
			<path d="M0 426.6 L-36.8 426.6" class="st4"/>
		</g>
		<g id="shape63-57" v:mID="63" v:groupContext="shape" v:layerMember="0" transform="translate(383.052,-298.013)">
			<title>동적 연결선.63</title>
			<path d="M0 433.68 L-10.63 433.68 L-10.63 391.16 L-36.8 391.16" class="st4"/>
		</g>
		<g id="shape64-62" v:mID="64" v:groupContext="shape" v:layerMember="0" transform="translate(383.052,-205.887)">
			<title>동적 연결선.64</title>
			<path d="M0 440.77 L-22.62 440.77" class="st4"/>
		</g>
		<g id="shape65-67" v:mID="65" v:groupContext="shape" v:layerMember="0" transform="translate(383.052,-156.281)">
			<title>동적 연결선.65</title>
			<path d="M0 433.68 L-14.17 433.68 L-14.17 391.16 L-22.62 391.16" class="st4"/>
		</g>
		<g id="shape66-72" v:mID="66" v:groupContext="shape" v:layerMember="0" transform="translate(383.052,-113.761)">
			<title>동적 연결선.66</title>
			<path d="M0 433.68 L-14.17 433.68 L-14.17 348.64 L-22.62 348.64" class="st4"/>
		</g>
		<g id="shape67-77" v:mID="67" v:groupContext="shape" v:layerMember="0" transform="translate(255.493,-198.8)">
			<title>동적 연결선.67</title>
			<path d="M0 433.68 L-14.17 433.68 L-14.17 291.95 L-28.35 291.95" class="st6"/>
		</g>
		<g id="shape70-80" v:mID="70" v:groupContext="shape" transform="translate(451.065,64.8031) rotate(90)">
			<title>시트.70</title>
			<path d="M0 433.68 L354.33 433.68" class="st7"/>
		</g>
		<g id="shape71-83" v:mID="71" v:groupContext="shape" transform="translate(796.892,64.8031) rotate(90)">
			<title>시트.71</title>
			<path d="M0 433.68 L354.33 433.68" class="st7"/>
		</g>
		<g id="shape72-86" v:mID="72" v:groupContext="shape" transform="translate(910.278,64.8031) rotate(90)">
			<title>시트.72</title>
			<path d="M0 433.68 L354.33 433.68" class="st7"/>
		</g>
		<g id="shape74-89" v:mID="74" v:groupContext="shape" transform="translate(18.375,480.769) scale(1,-1)">
			<title>측면 중괄호</title>
			<v:userDefs>
				<v:ud v:nameU="TxtW" v:val="VT0(0.55555555555556):29"/>
				<v:ud v:nameU="TxtA" v:val="VT0(1.5707963267949):37"/>
				<v:ud v:nameU="TxtAState" v:val="VT0(0):26"/>
				<v:ud v:nameU="TxtWState" v:val="VT0(0):26"/>
				<v:ud v:nameU="MaxRadius" v:val="VT0(0.19685039370079):24"/>
				<v:ud v:nameU="PosCH1" v:prompt="Constrains X postion of Control Handle #1" v:val="VT0(0):26"/>
				<v:ud v:nameU="PosCH2" v:prompt="Constrains Y postion of Control Handle #2" v:val="VT0(0):26"/>
				<v:ud v:nameU="Scale" v:val="VT0(1):26"/>
				<v:ud v:nameU="AntiScale" v:val="VT0(1):26"/>
				<v:ud v:nameU="visVersion" v:val="VT0(15):26"/>
			</v:userDefs>
			<path d="M0 419.51 L0 426.6 A7.0865 7.0865 -180 0 0 7.09 433.68 L165.33 433.68 A7.0865 7.0865 0 0 1 172.42 440.77 A7.0865
						 7.0865 0 0 1 179.5 433.68 L337.75 433.68 A7.0865 7.0865 -180 0 0 344.83 426.6 L344.83 419.51" class="st8"/>
		</g>
		<g id="shape75-92" v:mID="75" v:groupContext="shape" transform="translate(363.21,480.769) scale(1,-1)">
			<title>측면 중괄호.75</title>
			<v:userDefs>
				<v:ud v:nameU="TxtW" v:val="VT0(0.55555555555556):29"/>
				<v:ud v:nameU="TxtA" v:val="VT0(1.5707963267949):37"/>
				<v:ud v:nameU="TxtAState" v:val="VT0(0):26"/>
				<v:ud v:nameU="TxtWState" v:val="VT0(0):26"/>
				<v:ud v:nameU="MaxRadius" v:val="VT0(0.19685039370079):24"/>
				<v:ud v:nameU="PosCH1" v:prompt="Constrains X postion of Control Handle #1" v:val="VT0(0):26"/>
				<v:ud v:nameU="PosCH2" v:prompt="Constrains Y postion of Control Handle #2" v:val="VT0(0):26"/>
				<v:ud v:nameU="Scale" v:val="VT0(1):26"/>
				<v:ud v:nameU="AntiScale" v:val="VT0(1):26"/>
				<v:ud v:nameU="visVersion" v:val="VT0(15):26"/>
			</v:userDefs>
			<path d="M0 419.51 L0 426.6 A7.0865 7.0865 -180 0 0 7.09 433.68 L49.61 433.68 A7.0865 7.0865 0 0 1 56.69 440.77 A7.0865
						 7.0865 0 0 1 63.78 433.68 L106.3 433.68 A7.0865 7.0865 -180 0 0 113.39 426.6 L113.39 419.51" class="st8"/>
		</g>
		<g id="shape76-95" v:mID="76" v:groupContext="shape" transform="translate(148.273,-397.225)">
			<title>시트.76</title>
			<desc>Abstract Class</desc>
			<v:textBlock v:margins="rect(4,4,4,4)" v:tabSpace="42.5197"/>
			<v:textRect cx="42.5197" cy="426.595" width="85.04" height="14.1732"/>
			<rect x="0" y="419.509" width="85.0394" height="14.1732" class="st9"/>
			<text x="4.44" y="430.2" class="st10" v:langID="1042"><v:paragraph v:horizAlign="1"/><v:tabList/>Abstract Class</text>		</g>
		<g id="shape77-98" v:mID="77" v:groupContext="shape" transform="translate(377.383,-397.225)">
			<title>시트.77</title>
			<desc>Class</desc>
			<v:textBlock v:margins="rect(4,4,4,4)" v:tabSpace="42.5197"/>
			<v:textRect cx="42.5197" cy="426.595" width="85.04" height="14.1732"/>
			<rect x="0" y="419.509" width="85.0394" height="14.1732" class="st9"/>
			<text x="28.92" y="430.2" class="st10" v:langID="1042"><v:paragraph v:horizAlign="1"/><v:tabList/>Class</text>		</g>
		<g id="shape85-101" v:mID="85" v:groupContext="shape" transform="translate(255.493,-184.627)">
			<title>모서리가 둥근 직사각형.11</title>
			<desc>InputOutputNode</desc>
			<v:userDefs>
				<v:ud v:nameU="CTypeTopLeftSnip" v:prompt="" v:val="VT0(0):5"/>
				<v:ud v:nameU="CTypeTopRightSnip" v:prompt="" v:val="VT0(0):5"/>
				<v:ud v:nameU="CTypeBotLeftSnip" v:prompt="" v:val="VT0(0):5"/>
				<v:ud v:nameU="CTypeBotRightSnip" v:prompt="" v:val="VT0(0):5"/>
				<v:ud v:nameU="CornerLockHoriz" v:prompt="" v:val="VT0(1):5"/>
				<v:ud v:nameU="CornerLockVert" v:prompt="" v:val="VT0(1):5"/>
				<v:ud v:nameU="CornerLockDiag" v:prompt="" v:val="VT0(0):5"/>
				<v:ud v:nameU="TopLeftOffset" v:prompt="" v:val="VT0(0.15748031496063):24"/>
				<v:ud v:nameU="TopRightOffset" v:prompt="" v:val="VT0(0.15748031496063):24"/>
				<v:ud v:nameU="BotLeftOffset" v:prompt="" v:val="VT0(0.15748031496063):24"/>
				<v:ud v:nameU="BotRightOffset" v:prompt="" v:val="VT0(0.15748031496063):24"/>
				<v:ud v:nameU="visVersion" v:prompt="" v:val="VT0(15):26"/>
				<v:ud v:nameU="TopLeftOffset" v:prompt="" v:val="VT0(0.13779527559055):1"/>
				<v:ud v:nameU="TopRightOffset" v:prompt="" v:val="VT0(0.13779527559055):1"/>
				<v:ud v:nameU="BotLeftOffset" v:prompt="" v:val="VT0(0.13779527559055):1"/>
				<v:ud v:nameU="BotRightOffset" v:prompt="" v:val="VT0(0.13779527559055):1"/>
			</v:userDefs>
			<v:textBlock v:margins="rect(4,4,4,4)" v:tabSpace="42.5197"/>
			<v:textRect cx="49.6063" cy="419.509" width="99.22" height="28.3465"/>
			<path d="M9.92 433.68 L89.29 433.68 A9.9211 9.9211 -180 0 0 99.21 423.76 L99.21 415.26 A9.9211 9.9211 -180 0 0 89.29
						 405.34 L9.92 405.34 A9.9211 9.9211 -180 0 0 0 415.26 L0 423.76 A9.9211 9.9211 -180 0 0 9.92 433.68 Z"
					class="st2"/>
			<text x="9.14" y="422.51" class="st3" v:langID="1042"><v:paragraph v:horizAlign="1"/><v:tabList/>InputOutputNode</text>		</g>
		<g id="shape86-104" v:mID="86" v:groupContext="shape" v:layerMember="0" transform="translate(255.493,-333.446)">
			<title>동적 연결선.86</title>
			<path d="M0 426.6 L-22.62 426.6" class="st4"/>
		</g>
		<g id="shape88-109" v:mID="88" v:groupContext="shape" v:layerMember="0" transform="translate(383.052,-71.2411)">
			<title>동적 연결선.88</title>
			<path d="M0 433.68 L-14.17 433.68 L-14.17 306.12 L-28.35 306.12" class="st6"/>
		</g>
	</g>
</svg>
